<svg width="568" height="387" viewBox="0 0 568 387" fill="none" xmlns="http://www.w3.org/2000/svg">
<path d="M257.262 311.741C257.392 310.186 258.691 308.99 260.252 308.99H306.723C308.064 308.99 309.242 309.88 309.609 311.17L322.664 357.124C323.22 359.08 321.71 361.011 319.677 360.942L256.498 358.819C254.784 358.761 253.467 357.281 253.609 355.571L257.262 311.741Z" fill="#D9D9D9"/>
<path d="M260.264 312.168C260.367 310.445 258.996 308.99 257.269 308.99H222.464C221.125 308.99 219.948 309.878 219.58 311.166L207.088 354.889C206.54 356.805 207.979 358.713 209.972 358.713H254.667C256.254 358.713 257.567 357.476 257.661 355.891L260.264 312.168Z" fill="#D9D9D9"/>
<rect x="59" y="32" width="427" height="284" rx="8" fill="#27727A"/>
<rect x="72" y="44" width="402" height="260" rx="2" fill="#EDF6F8"/>
<mask id="mask0_241_2607" style="mask-type:luminance" maskUnits="userSpaceOnUse" x="374" y="84" width="56" height="56">
<path d="M418.067 100.64C419.69 102.964 420.788 105.614 421.286 108.405H427.375V115.346H421.286C420.788 118.138 419.69 120.787 418.067 123.112L422.375 127.42L417.466 132.329L413.158 128.021C410.834 129.644 408.184 130.742 405.393 131.239V137.329H398.451V131.239C395.66 130.742 393.01 129.644 390.686 128.021L386.378 132.329L381.469 127.42L385.777 123.112C384.154 120.787 383.056 118.138 382.558 115.346H376.469V108.405H382.558C383.056 105.614 384.154 102.964 385.777 100.64L381.469 96.3315L386.378 91.4229L390.686 95.7309C393.01 94.1079 395.66 93.0097 398.451 92.5123V86.4226H405.393V92.5123C408.184 93.0097 410.834 94.1079 413.158 95.7309L417.466 91.4229L422.375 96.3315L418.067 100.64Z" fill="white" stroke="white" stroke-width="4" stroke-linejoin="round"/>
<path d="M401.922 118.239C403.61 118.239 405.228 117.568 406.421 116.375C407.615 115.182 408.285 113.563 408.285 111.876C408.285 110.188 407.615 108.569 406.421 107.376C405.228 106.183 403.61 105.512 401.922 105.512C400.234 105.512 398.616 106.183 397.422 107.376C396.229 108.569 395.559 110.188 395.559 111.876C395.559 113.563 396.229 115.182 397.422 116.375C398.616 117.568 400.234 118.239 401.922 118.239Z" fill="black" stroke="black" stroke-width="4" stroke-linejoin="round"/>
</mask>
<g mask="url(#mask0_241_2607)">
<path d="M371.379 81.3325H432.467V142.42H371.379V81.3325Z" fill="#EEDF73" fill-opacity="0.51"/>
</g>
<mask id="mask1_241_2607" style="mask-type:luminance" maskUnits="userSpaceOnUse" x="91" y="151" width="56" height="56">
<path d="M135.122 168.12C136.745 170.444 137.843 173.094 138.34 175.886H144.43V182.827H138.34C137.843 185.618 136.745 188.268 135.122 190.592L139.43 194.9L134.521 199.809L130.213 195.501C127.888 197.124 125.238 198.222 122.447 198.72V204.809H115.506V198.72C112.715 198.222 110.065 197.124 107.74 195.501L103.432 199.809L98.5237 194.9L102.832 190.592C101.209 188.268 100.11 185.618 99.6131 182.827H93.5234V175.886H99.6131C100.11 173.094 101.209 170.444 102.832 168.12L98.5237 163.812L103.432 158.903L107.74 163.211C110.065 161.588 112.715 160.49 115.506 159.993V153.903H122.447V159.993C125.238 160.49 127.888 161.588 130.213 163.211L134.521 158.903L139.43 163.812L135.122 168.12Z" fill="white" stroke="white" stroke-width="4" stroke-linejoin="round"/>
<path d="M118.977 185.719C120.664 185.719 122.283 185.049 123.476 183.856C124.669 182.662 125.34 181.044 125.34 179.356C125.34 177.668 124.669 176.05 123.476 174.856C122.283 173.663 120.664 172.993 118.977 172.993C117.289 172.993 115.67 173.663 114.477 174.856C113.284 176.05 112.613 177.668 112.613 179.356C112.613 181.044 113.284 182.662 114.477 183.856C115.67 185.049 117.289 185.719 118.977 185.719Z" fill="black" stroke="black" stroke-width="4" stroke-linejoin="round"/>
</mask>
<g mask="url(#mask1_241_2607)">
<path d="M88.4297 148.813H149.517V209.9H88.4297V148.813Z" fill="#27727A" fill-opacity="0.55"/>
</g>
<mask id="mask2_241_2607" style="mask-type:luminance" maskUnits="userSpaceOnUse" x="362" y="243" width="56" height="55">
<path d="M406.231 259.279C407.854 261.603 408.952 264.253 409.45 267.044H415.539V273.986H409.45C408.952 276.777 407.854 279.427 406.231 281.751L410.539 286.059L405.63 290.968L401.322 286.66C398.998 288.283 396.348 289.381 393.557 289.879V295.968H386.615V289.879C383.824 289.381 381.174 288.283 378.85 286.66L374.542 290.968L369.633 286.059L373.941 281.751C372.318 279.427 371.22 276.777 370.722 273.986H364.633V267.044H370.722C371.22 264.253 372.318 261.603 373.941 259.279L369.633 254.971L374.542 250.062L378.85 254.37C381.174 252.747 383.824 251.649 386.615 251.151V245.062H393.557V251.151C396.348 251.649 398.998 252.747 401.322 254.37L405.63 250.062L410.539 254.971L406.231 259.279Z" fill="white" stroke="white" stroke-width="4" stroke-linejoin="round"/>
<path d="M390.086 276.878C391.774 276.878 393.392 276.208 394.586 275.014C395.779 273.821 396.449 272.203 396.449 270.515C396.449 268.827 395.779 267.209 394.586 266.015C393.392 264.822 391.774 264.152 390.086 264.152C388.398 264.152 386.78 264.822 385.586 266.015C384.393 267.209 383.723 268.827 383.723 270.515C383.723 272.203 384.393 273.821 385.586 275.014C386.78 276.208 388.398 276.878 390.086 276.878Z" fill="black" stroke="black" stroke-width="4" stroke-linejoin="round"/>
</mask>
<g mask="url(#mask2_241_2607)">
<path d="M359.543 239.971H420.631V301.059H359.543V239.971Z" fill="#27727A" fill-opacity="0.6"/>
</g>
<path d="M72 46C72 44.8954 72.8954 44 74 44H472C473.105 44 474 44.8954 474 46V67H72V46Z" fill="#A8D1DD"/>
<rect x="187" y="358" width="148" height="9" rx="2" fill="#D9D9D9"/>
<ellipse cx="457" cy="55.5" rx="6" ry="5.5" fill="#D9D9D9"/>
<circle cx="440.5" cy="55.5" r="5.5" fill="#D9D9D9"/>
<circle cx="421.5" cy="55.5" r="5.5" fill="#D9D9D9"/>
<path d="M267.037 151.953C260.193 151.953 253.783 154.624 248.93 159.505C244.099 164.386 241.421 170.832 241.421 177.716C241.421 184.6 244.099 191.047 248.93 195.928C253.783 200.786 260.193 203.48 267.037 203.48C273.882 203.48 280.292 200.786 285.145 195.928C289.975 191.047 292.653 184.6 292.653 177.716C292.653 170.832 289.975 164.386 285.145 159.505C282.774 157.102 279.953 155.198 276.845 153.901C273.736 152.605 270.402 151.943 267.037 151.953ZM361.421 206.173L346.45 193.303C347.159 188.929 347.526 184.462 347.526 180.019C347.526 175.575 347.159 171.086 346.45 166.734L361.421 153.864C362.552 152.89 363.361 151.593 363.742 150.146C364.122 148.698 364.055 147.168 363.55 145.76L363.344 145.161C359.224 133.573 353.05 122.832 345.122 113.458L344.71 112.974C343.747 111.836 342.464 111.017 341.03 110.627C339.595 110.236 338.077 110.292 336.675 110.787L318.086 117.441C311.219 111.777 303.573 107.31 295.286 104.202L291.692 84.6553C291.421 83.1828 290.711 81.8281 289.656 80.7712C288.601 79.7143 287.251 79.0053 285.786 78.7383L285.168 78.6232C273.264 76.4589 260.719 76.4589 248.815 78.6232L248.197 78.7383C246.732 79.0053 245.382 79.7143 244.327 80.7712C243.272 81.8281 242.562 83.1828 242.291 84.6553L238.674 104.294C230.466 107.427 222.819 111.883 216.034 117.487L197.308 110.787C195.906 110.288 194.387 110.231 192.952 110.621C191.516 111.012 190.233 111.833 189.273 112.974L188.861 113.458C180.947 122.842 174.775 133.58 170.639 145.161L170.433 145.76C169.403 148.638 170.25 151.861 172.562 153.864L187.716 166.872C187.007 171.201 186.663 175.621 186.663 179.996C186.663 184.416 187.007 188.837 187.716 193.119L172.608 206.127C171.477 207.101 170.667 208.398 170.287 209.846C169.907 211.293 169.974 212.823 170.479 214.232L170.685 214.83C174.828 226.411 180.94 237.117 188.907 246.534L189.319 247.017C190.282 248.156 191.565 248.974 192.999 249.364C194.433 249.755 195.952 249.699 197.354 249.204L216.08 242.504C222.901 248.145 230.502 252.612 238.72 255.697L242.337 275.336C242.608 276.809 243.318 278.163 244.373 279.22C245.428 280.277 246.778 280.986 248.243 281.253L248.861 281.368C260.882 283.544 273.193 283.544 285.214 281.368L285.832 281.253C287.297 280.986 288.646 280.277 289.701 279.22C290.756 278.163 291.467 276.809 291.738 275.336L295.332 255.789C303.619 252.658 311.265 248.214 318.132 242.55L336.721 249.204C338.122 249.703 339.642 249.761 341.077 249.37C342.512 248.979 343.795 248.159 344.756 247.017L345.168 246.534C353.134 237.071 359.246 226.411 363.39 214.83L363.596 214.232C364.58 211.377 363.733 208.176 361.421 206.173ZM267.037 218.192C244.809 218.192 226.793 200.072 226.793 177.716C226.793 155.36 244.809 137.241 267.037 137.241C289.265 137.241 307.281 155.36 307.281 177.716C307.281 200.072 289.265 218.192 267.037 218.192Z" fill="#27727A"/>
<ellipse cx="268" cy="177.5" rx="40" ry="40.5" fill="#EDF6F8"/>
<path d="M261.21 190L253.11 169H248.37L240.06 190H244.32L246.21 185.05H255.03L256.92 190H261.21ZM250.62 173.5L253.65 181.45H247.59L250.62 173.5ZM268.497 190V182.23H273.897C277.947 182.23 280.647 179.8 280.647 175.6C280.647 171.4 277.947 169 273.897 169H264.447V190H268.497ZM268.497 172.6H273.447C275.547 172.6 276.597 173.8 276.597 175.6C276.597 177.4 275.547 178.63 273.447 178.63H268.497V172.6ZM288.667 190V169H284.617V190H288.667Z" fill="#27727A"/>
<rect x="10" y="212" width="92" height="67" rx="12" fill="#27727A" stroke="#EDF6F8" stroke-width="4"/>
<path d="M81.5 291L70.6747 270.75L92.3253 270.75L81.5 291Z" fill="#27727A"/>
<path d="M81.5 291L70.6747 270.75L92.3253 270.75L81.5 291Z" stroke="#27727A"/>
<path d="M26.48 243.308V247.748L42.205 254.038V249.117L32.548 245.454L42.205 241.828V237.018L26.48 243.308ZM51.5039 255L61.3089 229.1H56.3139L46.3239 255H51.5039ZM65.4497 241.902L75.1067 245.528L65.4497 249.191V254.001L81.1747 247.711V243.271L65.4497 236.981V241.902Z" fill="#EDF6F8"/>
<rect x="421.957" y="89.2905" width="144.616" height="110.284" rx="1.5" fill="#EDF6F8" stroke="#27727A"/>
<path d="M421.457 90.7905C421.457 89.686 422.352 88.7905 423.457 88.7905H565.073C566.178 88.7905 567.073 89.686 567.073 90.7905V100.629H421.457V90.7905Z" fill="#27727A"/>
<rect x="434.48" y="111.284" width="28.4129" height="5.91935" fill="#27727A" fill-opacity="0.58"/>
<rect x="433.297" y="168.11" width="28.4129" height="5.91935" fill="#27727A" fill-opacity="0.58"/>
<rect x="441.582" y="179.949" width="28.4129" height="5.91935" fill="#27727A" fill-opacity="0.58"/>
<rect x="439.215" y="121.939" width="28.4129" height="5.91935" fill="#EEDF73"/>
<rect x="466.445" y="111.284" width="28.4129" height="5.91935" fill="#27727A" fill-opacity="0.58"/>
<rect x="465.262" y="168.11" width="28.4129" height="5.91935" fill="#27727A" fill-opacity="0.58"/>
<rect x="473.547" y="179.949" width="28.4129" height="5.91935" fill="#27727A" fill-opacity="0.58"/>
<rect x="471.18" y="121.939" width="28.4129" height="5.91935" fill="#EEDF73"/>
<rect x="434.48" y="134.961" width="4.73548" height="5.91935" fill="#EEDF73"/>
<rect x="465.262" y="134.961" width="4.73548" height="5.91935" fill="#EEDF73"/>
<rect x="497.227" y="134.961" width="4.73548" height="5.91935" fill="#EEDF73"/>
<rect x="497.227" y="144.433" width="4.73548" height="5.91935" fill="#EEDF73"/>
<rect x="449.871" y="134.961" width="4.73548" height="5.91935" fill="#EEDF73"/>
<rect x="480.652" y="134.961" width="4.73548" height="5.91935" fill="#EEDF73"/>
<rect x="512.613" y="134.961" width="4.73548" height="5.91935" fill="#EEDF73"/>
<rect x="512.613" y="144.433" width="4.73548" height="5.91935" fill="#EEDF73"/>
<rect x="442.766" y="134.961" width="4.73548" height="5.91935" fill="#EEDF73"/>
<rect x="473.547" y="134.961" width="4.73548" height="5.91935" fill="#EEDF73"/>
<rect x="505.512" y="134.961" width="4.73548" height="5.91935" fill="#EEDF73"/>
<rect x="505.512" y="144.433" width="4.73548" height="5.91935" fill="#EEDF73"/>
<rect x="458.156" y="134.961" width="4.73548" height="5.91935" fill="#EEDF73"/>
<rect x="488.938" y="134.961" width="4.73548" height="5.91935" fill="#EEDF73"/>
<rect x="520.902" y="134.961" width="4.73548" height="5.91935" fill="#EEDF73"/>
<rect x="520.902" y="144.433" width="4.73548" height="5.91935" fill="#EEDF73"/>
<rect x="498.41" y="111.284" width="28.4129" height="5.91935" fill="#27727A" fill-opacity="0.58"/>
<rect x="497.227" y="168.11" width="28.4129" height="5.91935" fill="#27727A" fill-opacity="0.58"/>
<rect x="505.512" y="179.949" width="28.4129" height="5.91935" fill="#27727A" fill-opacity="0.58"/>
<rect x="503.145" y="121.939" width="28.4129" height="5.91935" fill="#EEDF73"/>
<circle cx="558.786" cy="94.7098" r="3.55161" fill="#D9D9D9"/>
<circle cx="548.13" cy="94.7098" r="3.55161" fill="#D9D9D9"/>
<circle cx="537.477" cy="94.7098" r="3.55161" fill="#D9D9D9"/>
<rect x="537.477" y="111.284" width="24.8613" height="62.7452" fill="white"/>
<rect x="0.5" y="0.5" width="111.468" height="84.951" rx="1.5" fill="#EDF6F8" stroke="#27727A"/>
<path d="M0 2C0 0.895432 0.895431 0 2 0H110.468C111.572 0 112.468 0.895431 112.468 2V9.14372H0V2Z" fill="#27727A"/>
<rect x="30.7812" y="66.2969" width="21.9449" height="4.57186" fill="#27727A" fill-opacity="0.58"/>
<rect x="23" y="74" width="21.9449" height="4.57186" fill="#27727A" fill-opacity="0.58"/>
<circle cx="106.067" cy="4.57148" r="2.74312" fill="#D9D9D9"/>
<circle cx="97.8369" cy="4.57148" r="2.74312" fill="#D9D9D9"/>
<circle cx="89.6103" cy="4.57148" r="2.74312" fill="#D9D9D9"/>
<path d="M53.3133 58C53.3133 58.952 53.396 59.876 53.5338 60.8H38.1567C34.023 60.8 30.413 59.4 27.4368 56.404C24.4881 53.464 23 49.852 23 45.624C23 41.984 24.0747 38.736 26.2242 35.88C28.3737 33.024 31.2673 31.204 34.712 30.42C35.8694 26.136 38.1567 22.664 41.6014 20.004C45.0461 17.344 48.9592 16 53.3133 16C58.6871 16 63.2341 17.904 66.9819 21.712C70.7297 25.52 72.6037 30.14 72.6037 35.6C75.7728 35.964 78.3908 37.364 80.4851 39.8C80.6505 39.94 80.7607 40.164 80.8709 40.332C78.3908 39.1 75.5799 38.4 72.6037 38.4C70.7022 38.4 68.8283 38.708 67.0921 39.212V35.6C67.0921 31.736 65.7143 28.432 63.0687 25.688C60.3681 23 57.1163 21.6 53.3133 21.6C49.5104 21.6 46.2586 23 43.558 25.688C40.9124 28.432 39.5346 31.736 39.5346 35.6H38.1567C35.4836 35.6 33.2239 36.552 31.3499 38.484C29.4485 40.388 28.5115 42.684 28.5115 45.4C28.5115 48.116 29.4485 50.412 31.3499 52.4C33.2239 54.248 35.4836 55.2 38.1567 55.2H53.5338C53.396 56.124 53.3133 57.048 53.3133 58ZM85.914 62.592L83.1582 67.436C82.9653 67.8 82.6071 67.8 82.2488 67.8L78.8592 66.4C78.1152 66.904 77.3711 67.352 76.5444 67.716L76.0208 71.412C75.9657 71.748 75.6626 72 75.3594 72H69.8479C69.4621 72 69.1865 71.748 69.1314 71.412L68.6078 67.716C67.7535 67.38 66.9819 66.904 66.2654 66.4L62.8483 67.8C62.5176 67.8 62.1593 67.8 61.994 67.436L59.2382 62.592C59.1613 62.4458 59.1357 62.2774 59.1658 62.1144C59.1959 61.9515 59.2797 61.8039 59.4036 61.696L62.3247 59.4C62.2148 58.47 62.2148 57.53 62.3247 56.6L59.4036 54.304C59.2743 54.2 59.1863 54.0521 59.1559 53.8874C59.1255 53.7228 59.1548 53.5525 59.2382 53.408L61.994 48.564C62.1869 48.2 62.5451 48.2 62.8483 48.2L66.2654 49.6C66.9819 49.096 67.7811 48.648 68.6078 48.284L69.1314 44.588C69.1638 44.4201 69.2533 44.2691 69.3844 44.1615C69.5154 44.054 69.6795 43.9968 69.8479 44H75.3594C75.6626 44 75.9657 44.252 75.9932 44.588L76.5168 48.284C77.3711 48.62 78.1152 49.096 78.8592 49.6L82.2488 48.2C82.6071 48.2 82.9653 48.2 83.1307 48.564L85.8864 53.408C86.0518 53.716 85.9691 54.08 85.7211 54.304L82.8 56.6C82.8826 57.076 82.9102 57.524 82.9102 58C82.9102 58.476 82.8551 58.924 82.8 59.4L85.7486 61.696C85.9966 61.92 86.0793 62.284 85.914 62.592ZM76.7373 58C76.7373 55.676 74.8634 53.8 72.6037 53.8C70.3439 53.8 68.47 55.676 68.47 58C68.47 60.324 70.2888 62.2 72.6037 62.2C74.9185 62.2 76.7373 60.324 76.7373 58Z" fill="#27727A"/>
<path d="M218.304 316H310.466L312 321.344L213 335L218.304 316Z" fill="#C6C4C4"/>
<path d="M214.125 316H222L214.125 358H204L214.125 316Z" fill="#C6C4C4"/>
<rect x="183" y="358" width="8" height="9" rx="1" fill="#C6C4C4"/>
<path d="M235.791 161.923C234.923 161.569 234.502 160.575 234.902 159.727C237.114 155.033 240.429 150.933 244.573 147.784C248.718 144.634 253.555 142.539 258.67 141.665C259.594 141.508 260.439 142.179 260.548 143.111C260.657 144.042 259.989 144.881 259.066 145.044C254.554 145.844 250.289 147.706 246.628 150.488C242.967 153.27 240.03 156.881 238.052 161.013C237.646 161.859 236.66 162.278 235.791 161.923Z" fill="#EEDF73"/>
<path d="M292.687 202.633C293.376 203.27 293.421 204.348 292.749 205.002C289.494 208.172 285.602 210.624 281.323 212.19C277.045 213.756 272.489 214.397 267.957 214.077C267.022 214.011 266.36 213.159 266.475 212.228C266.59 211.297 267.438 210.641 268.374 210.701C272.371 210.958 276.384 210.381 280.156 209C283.928 207.619 287.365 205.469 290.251 202.693C290.927 202.043 291.998 201.997 292.687 202.633Z" fill="#EEDF73"/>
<path d="M374.422 219.835C373.454 220.946 373.57 222.63 374.68 223.598C375.791 224.565 377.475 224.449 378.443 223.339C379.41 222.229 379.294 220.544 378.184 219.577C377.074 218.609 375.389 218.725 374.422 219.835ZM456.836 232.797L456.336 232.787L456.836 232.797ZM376.432 222.087L445.838 222.085L445.838 221.085L376.432 221.087L376.432 222.087ZM456.336 232.787L455.222 290.673L456.222 290.693L457.336 232.806L456.336 232.787ZM445.838 222.085C451.716 222.085 456.449 226.91 456.336 232.787L457.336 232.806C457.46 226.37 452.276 221.085 445.838 221.085L445.838 222.085Z" fill="black"/>
<path d="M138.709 91.4039C139.856 90.4809 141.535 90.6631 142.458 91.8107C143.381 92.9584 143.199 94.637 142.051 95.56C140.903 96.4829 139.225 96.3008 138.302 95.1531C137.379 94.0054 137.561 92.3268 138.709 91.4039ZM140.88 93.4819L140.88 117.339L139.88 117.339L139.88 93.4819L140.88 93.4819ZM151.167 127.837L169.954 128.218L169.934 129.218L151.147 128.837L151.167 127.837ZM140.88 117.339C140.88 123.055 145.452 127.721 151.167 127.837L151.147 128.837C144.888 128.71 139.88 123.6 139.88 117.339L140.88 117.339Z" fill="black"/>
<path d="M137.312 286.064C136.345 284.954 136.461 283.269 137.571 282.302C138.681 281.334 140.366 281.45 141.333 282.56C142.301 283.67 142.185 285.355 141.075 286.322C139.964 287.29 138.28 287.174 137.312 286.064ZM139.323 283.812L208.942 283.814L208.942 284.814L139.323 284.812L139.323 283.812ZM219.442 273.314L219.442 260.525L220.442 260.525L220.442 273.314L219.442 273.314ZM208.942 283.814C214.741 283.814 219.442 279.113 219.442 273.314L220.442 273.314C220.442 279.665 215.293 284.814 208.942 284.814L208.942 283.814Z" fill="black"/>
</svg>
